<?xml version="1.0" encoding="utf-8"?>
<!-- Generator: Adobe Illustrator 23.0.1, SVG Export Plug-In . SVG Version: 6.00 Build 0)  -->
<svg version="1.1" id="bacon" xmlns="http://www.w3.org/2000/svg" xmlns:xlink="http://www.w3.org/1999/xlink" x="0px" y="0px"
	 viewBox="0 0 118.47 352.71" style="enable-background:new 0 0 118.47 352.71;" xml:space="preserve">
<style type="text/css">
	.st0{fill:#91573A;stroke:#8E2911;stroke-width:3;stroke-miterlimit:10;}
	.st1{fill:none;stroke:#934738;stroke-width:8;stroke-miterlimit:10;}
</style>

<defs>
	<script>
		let theIcon = document.querySelector("#bacon");

		function logThisIcon() {
			console.log(this.id);
		}

		theIcon.addEventListener("click", logThisIcon);
	</script>
</defs>

<path id="bacon" class="st0" d="M42.19,2.17c17.35,0.8,9.11,0.92,32.72-0.15c8.9-0.4,34.81,8.27,31.99,16.72
	C99,42.49,87.8,83.64,95.97,106.52c0,0,31.75,53.84,7.26,92.15c-5.9,9.23-9.72,19.63-11.12,30.49
	c-2.77,21.55,8.18,52.09,18.21,83.01c0,0,11.52,29.81-1.67,37.58c-1.74,1.03-3.77,1.47-5.79,1.47l-72.68,0
	c-5.81,0-10.62-4.68-10.6-10.49c0.02-7.61,5.42-16.1,7.85-26.18c5.23-21.65,0.34-37.72-3.73-46.31c-4.39-9.28-7.24-19.21-8.69-29.38
	c-2.5-17.49-3.63-42.26,4.55-63c16.24-41.15,7.82-67.6,1.53-79.52c-3.7-7-6.52-14.43-8.16-22.17c-3.19-15.09-7.59-38.64-8-55.69
	C4.68,8.36,32.07,1.7,42.19,2.17z"/>
<g id="swiv">
	<path class="st1" d="M27.43,24.43c0,0-3.19,47.82,21.52,91.66c16.99,30.14,5.5,54.63-3.34,66.99c-7.5,10.49-12.25,22.75-13.1,35.62
		c-0.88,13.33,0.79,29.91,9.98,45.64c20.01,34.27,0,64.56,0,64.56"/>
	<path class="st1" d="M59.85,18.48c0,0-3.19,47.82,21.52,91.66c16.99,30.14,5.5,54.63-3.34,66.99c-7.5,10.49-12.25,22.75-13.1,35.62
		c-0.88,13.33,0.79,29.91,9.98,45.64c20.01,34.27,0,64.56,0,64.56"/>
</g>
</svg>
