<?xml version="1.0" encoding="utf-8"?>
<!-- Generator: Adobe Illustrator 23.0.1, SVG Export Plug-In . SVG Version: 6.00 Build 0)  -->
<svg version="1.1" id="soupBowl" xmlns="http://www.w3.org/2000/svg" xmlns:xlink="http://www.w3.org/1999/xlink" x="0px" y="0px"
	 viewBox="0 0 266.91 348.52" style="enable-background:new 0 0 266.91 348.52;" xml:space="preserve">
<style type="text/css">
	.st0{fill:#EDE6DD;}
	.st1{fill:#F9F2E8;}
	.st2{fill:none;stroke:#FFFFFF;stroke-width:5;stroke-miterlimit:10;}
	.st3{fill:none;stroke:#C9C9C9;stroke-width:10;stroke-miterlimit:10;}
</style>

<defs>
	<script>
		let theIcon = document.querySelector("#soupBowl");

		function logThisIcon() {
			console.log(this.id);
		}

		theIcon.addEventListener("click", logThisIcon);
	</script>
</defs>

<polygon id="base" class="st0" points="84.16,348.52 217.05,348.52 217.05,311.17 63.53,311.17 63.53,348.52 "/>
<path id="bowl" class="st1" d="M0.07,202.85h265.26c0,0,25.02,123.95-123.95,123.95S0.07,202.85,0.07,202.85z"/>
<g id="glare">
	<path class="st2" d="M32.1,233.47c0,0,11.17,22.49,34.91,28.36"/>
	<path class="st2" d="M48.65,222.45c0,0,7.74,17.48,24.18,22.05"/>
</g>
<g id="steam">
	<path class="st3" d="M102.6,24.09c0,0-26.79,37.51,0,66.08s0,60.72,0,60.72s-9.23,25,11.91,38.4"/>
	<path class="st3" d="M152.19,0c0,0-26.79,37.51,0,66.08s0,60.72,0,60.72s-9.23,25,11.91,38.4"/>
</g>
</svg>
