<?xml version="1.0" encoding="utf-8"?>
<!-- Generator: Adobe Illustrator 23.0.1, SVG Export Plug-In . SVG Version: 6.00 Build 0)  -->
<svg version="1.1" id="bunny" xmlns="http://www.w3.org/2000/svg" xmlns:xlink="http://www.w3.org/1999/xlink" x="0px" y="0px"
	 viewBox="0 0 254.55 510.56" style="enable-background:new 0 0 254.55 510.56;" xml:space="preserve">
<style type="text/css">
	.st0{fill:#EAEAEA;}
	.st1{fill:#DDDDDD;}
	.st2{fill:#C1C1C1;}
	.st3{fill:#F4CBF3;}
</style>

<defs>
	<script>
		let theIcon = document.querySelector("#bunny");

		function logThisIcon() {
			console.log(this.id);
		}

		theIcon.addEventListener("click", logThisIcon);
	</script>
</defs>

<g id="trace">
	<path class="st0" d="M68.94,290.41c0,0-110.13-166.75-52-290.41c0,0,81.24,22.9,82.14,278.83L68.94,290.41z"/>
	<path class="st0" d="M185.61,293.09c0,0,110.13-166.75,52-290.41c0,0-81.24,22.9-82.14,278.83L185.61,293.09z"/>
	<path id="face_left" class="st1" d="M130.05,275.64v234.92c0,0-115.28,7.36-113.07-117.46S130.05,275.64,130.05,275.64z"/>
	<path id="face_right" class="st2" d="M130.05,275.64v234.92c0,0,115.28,7.36,113.07-117.46
		C240.91,268.27,130.05,275.64,130.05,275.64z"/>
	<g>
		<g id="eyes">
			<circle cx="99.09" cy="344.47" r="14.36"/>
			<circle cx="157.43" cy="344.47" r="14.36"/>
		</g>
	</g>
	<polygon id="mouth" points="124.16,416.2 124.16,510.58 130.05,510.56 135.92,510.64 135.92,416.2 	"/>
	<path id="nose" class="st3" d="M115.73,396.83c0,0,13.12-15.39,25.99,0c12.87,15.39-5.79,19.37-5.79,19.37h-11.76
		C124.16,416.2,104.88,414.23,115.73,396.83z"/>
</g>
</svg>
