<?xml version="1.0" encoding="utf-8"?>
<!-- Generator: Adobe Illustrator 23.0.1, SVG Export Plug-In . SVG Version: 6.00 Build 0)  -->
<svg version="1.1" id="cat" xmlns="http://www.w3.org/2000/svg" xmlns:xlink="http://www.w3.org/1999/xlink" x="0px" y="0px"
	 viewBox="0 0 383.18 397.63" style="enable-background:new 0 0 383.18 397.63;" xml:space="preserve">
<style type="text/css">
	.st0{display:none;}
	.st1{fill:#E2E2E2;}
	.st2{fill:#C6C6C6;}
	.st3{stroke:#000000;stroke-width:6;stroke-miterlimit:10;}
	.st4{fill:none;stroke:#000000;stroke-width:6;stroke-miterlimit:10;}
</style>

<defs>
	<script>
		let theIcon = document.querySelector("#cat");

		function logThisIcon() {
			console.log(this.id);
		}

		theIcon.addEventListener("click", logThisIcon);
	</script>
</defs>

<g id="Layer_1" class="st0">
	
	
</g>
<g id="trace">
	<path id="face-left" class="st1" d="M194.01,61.41v335.25c0,0-174.14,24.41-160.3-160.3C33.71,236.36,28.02,59.79,194.01,61.41z"/>
	<path id="face-right" class="st2" d="M194.01,61.41v335.25c0,0,174.14,24.41,160.3-160.3C354.32,236.36,360.01,59.79,194.01,61.41z
		"/>
	<polygon id="mouth" points="184.54,286.21 184.54,397.63 194.91,396.62 203.63,397.55 203.63,286.21 	"/>
	<path id="nose" d="M164.34,257.68c0,0,27.36-50.92,57.71,0c0,0,12.93,28.52-18.41,28.53h-19.1
		C184.54,286.21,150.16,287.1,164.34,257.68z"/>
	<g id="eyes">
		<circle cx="149.92" cy="194.73" r="20.75"/>
		<circle cx="236.64" cy="192.83" r="20.75"/>
	</g>
	<g id="whiskers">
		<line class="st3" x1="113.47" y1="254.75" x2="5.43" y2="215.48"/>
		<line class="st4" x1="113.47" y1="254.75" x2="1.73" y2="271.8"/>
		<line class="st4" x1="113.47" y1="254.75" x2="19.51" y2="322.18"/>
		<line class="st3" x1="265.68" y1="254.75" x2="373.72" y2="215.48"/>
		<line class="st4" x1="265.68" y1="254.75" x2="377.42" y2="271.8"/>
		<line class="st4" x1="265.68" y1="254.75" x2="359.64" y2="322.18"/>
	</g>
	<g id="ears">
		<polyline points="325.6,127.62 322.68,0 232.98,64.36 325.6,127.62 		"/>
		<polyline points="63.12,126.54 66.49,0.13 156.19,64.48 63.12,126.54 		"/>
	</g>
</g>
</svg>
