<?xml version="1.0" encoding="utf-8"?>
<!-- Generator: Adobe Illustrator 23.0.1, SVG Export Plug-In . SVG Version: 6.00 Build 0)  -->
<svg version="1.1" id="dog" xmlns="http://www.w3.org/2000/svg" xmlns:xlink="http://www.w3.org/1999/xlink" x="0px" y="0px"
	 viewBox="0 0 306.05 325.79" style="enable-background:new 0 0 306.05 325.79;" xml:space="preserve">
<style type="text/css">
	.st0{display:none;}
	.st1{fill:#68472C;}
	.st2{fill:#7F5B40;}
</style>

<defs>
	<script>
		let theIcon = document.querySelector("#dog");

		function logThisIcon() {
			console.log(this.id);
		}

		theIcon.addEventListener("click", logThisIcon);
	</script>
</defs>

<g id="Layer_1" class="st0"></g>
<g id="trace">
	<path d="M195.55,12.85c0,0,33.65-18.17,51.38,8.42c0,0,64.82,86.98,58.72,173.4s-50.52-78.2-50.52-78.2s-31.21-72.35-38.52-84.84
		s0,0,0,0L195.55,12.85"/>
	<path d="M110.1,12.85c0,0-33.65-18.17-51.38,8.42c0,0-64.82,86.98-58.72,173.4s50.52-78.2,50.52-78.2s31.21-72.35,38.52-84.84
		c7.31-12.49,0,0,0,0L110.1,12.85"/>
	<path class="st1" d="M117.52,325.66c0,0-76.59,7.41-84.83-90.59S89.04,31.64,89.04,31.64S110.73,0.9,153.22,0v325.79L117.52,325.66
		z"/>
	<path class="st2" d="M188.07,325.66c0,0,76.59,7.41,84.83-90.59c8.24-98.01-56.34-203.43-56.34-203.43S194.86,0.9,152.37,0v325.79
		L188.07,325.66z"/>
	<path d="M147.87,220.93v104.86h15.2V220.93c0,0,34.44-25.83,15.7-44.57s-41.49-6.77-41.49-6.77S99.11,189.8,147.87,220.93z"/>
	<circle cx="121.33" cy="116.48" r="14.96"/>
	<circle cx="188.82" cy="116.48" r="14.96"/>
</g>
</svg>
