<?xml version="1.0" encoding="utf-8"?>
<!-- Generator: Adobe Illustrator 23.0.1, SVG Export Plug-In . SVG Version: 6.00 Build 0)  -->
<svg version="1.1" id="hipster" xmlns="http://www.w3.org/2000/svg" xmlns:xlink="http://www.w3.org/1999/xlink" x="0px" y="0px"
	 viewBox="0 0 235.66 396.82" style="enable-background:new 0 0 235.66 396.82;" xml:space="preserve">
<style type="text/css">
	.st0{fill:#F2DFC4;}
	.st1{fill:#BC6226;}
	.st2{fill:#FFFFFF;stroke:#F9B7C0;stroke-width:2;stroke-miterlimit:10;}
</style>

<defs>
	<script>
		let theIcon = document.querySelector("#hipster");

		function logThisIcon() {
			console.log(this.id);
		}

		theIcon.addEventListener("click", logThisIcon);
	</script>
</defs>

<ellipse id="head" class="st0" cx="110.16" cy="217.47" rx="91.4" ry="138.82"/>
<g id="beard">
	<path class="st1" d="M155.11,266.04c0,0-46.99-8.8-87.57,4.09H25.57c0,0,21.5,89.06,87.88,86.06c0,0,60.27,0.81,83.05-93.07
		C196.5,263.12,171.22,269.01,155.11,266.04z"/>
	<path class="st1" d="M23.02,357.04c0.34,4.36,10.61,24.62,28.31,31.56c12.58,4.93,26.53,8.37,44.19,8.22
		c24.71-0.22,46.04-0.21,60.74-0.15c23.41,0.1,44.21-15.97,48.94-38.9c0.41-1.99,0.7-4.04,0.86-6.15c2.07-28.2-9.55-88.5-9.55-88.5
		l-72.97,66.85L48.9,298.96l-23.33-28.83c0,0-7.77,50.81-4.87,78.59"/>
</g>
<path id="mouth" class="st2" d="M80.34,291.04c0,0,43.73,43.07,70.23-7.29C150.57,283.75,94.25,284.41,80.34,291.04z"/>
<path id="hair" class="st1" d="M34.63,270.13l-2.92-123.92c0,0,10.38-30.43,33.01-49.21c0,0,52.08,30.4,90.89,0
	c0,0,20.02,17.13,31.9,46.49l2.79,120.87l6.2-1.25c0,0,12.7-49.85-2.37-100.56l-4.69-79.35l25.32-47.73c0,0,4.57-18.26-41.92,0
	c0,0,36.52-23.24-5.81-14.53c0,0-11.21-25.73-48.56,2.08c0,0-77.61-11.21-112.05,35.28l9.55,138.62c0,0,3.04,53.86,9.61,73.2
	S34.63,270.13,34.63,270.13z"/>
<g id="eyes">
	<circle cx="80" cy="203.21" r="9.89"/>
	<circle cx="134.91" cy="203.21" r="9.89"/>
</g>
<g id="eye_brows">
	<path class="st1" d="M75.65,169.44c0,0-15.98,5.45-23.97,13.44S56.76,163.63,75.65,169.44z"/>
	<path class="st1" d="M155.59,181.08c7.99,7.99-5.09-19.25-23.97-13.44C131.61,167.64,147.6,173.09,155.59,181.08"/>
</g>
</svg>
