<?xml version="1.0" encoding="utf-8"?>
<!-- Generator: Adobe Illustrator 23.0.1, SVG Export Plug-In . SVG Version: 6.00 Build 0)  -->
<svg version="1.1" id="oldMan" xmlns="http://www.w3.org/2000/svg" xmlns:xlink="http://www.w3.org/1999/xlink" x="0px" y="0px"
	 viewBox="0 0 330.08 335.46" style="enable-background:new 0 0 330.08 335.46;" xml:space="preserve">
<style type="text/css">
	.st0{display:none;}
	.st1{fill:#F9E3D7;}
	.st2{fill:#AAAAAA;}
	.st3{fill:#FFFFFF;stroke:#F7BCBC;stroke-width:2;stroke-miterlimit:10;}
	.st4{fill:#EAB9A2;}
</style>

<defs>
	<script>
		let theIcon = document.querySelector("#oldMan");

		function logThisIcon() {
			console.log(this.id);
		}

		theIcon.addEventListener("click", logThisIcon);
	</script>
</defs>

<g class="st0">
</g>
<g id="trace">
	<path class="st1" d="M167.92,335.04V0c0,0-145.4-14.6-145.4,166.54S167.92,335.04,167.92,335.04z"/>
	<path class="st1" d="M308.26,176.72c0,0,8.01-176.77-147.94-176.72v335.04C160.32,335.04,308.26,353.4,308.26,176.72z"/>
	<path class="st2" d="M26.5,214.73h279.32c0,0-8.59,128.9-135.28,120.85c-1.48-0.09-3.01-0.11-4.47-0.12
		C150.94,335.36,43.7,341.33,26.5,214.73z"/>
	<path class="st3" d="M166.47,240.69H130.3c0,0-7.05,22.35,36.17,22.35s32.43-22.35,32.43-22.35H166.47z"/>
	<path class="st2" d="M78.49,25.88c0,0-22.82,131.32-55.69,127.51c-32.88-3.81,22.62-115.58,22.62-115.58S56.83,18.58,78.49,25.88z"
		/>
	<path class="st2" d="M251.29,28.76c0,0,22.82,131.32,55.69,127.51c32.88-3.81-22.62-115.58-22.62-115.58S272.95,21.46,251.29,28.76
		z"/>
	<circle cx="119.68" cy="120.43" r="13.49"/>
	<circle cx="209.61" cy="120.43" r="13.49"/>
	<path class="st2" d="M95.22,88.85h48.92C144.14,88.85,125.36,68.99,95.22,88.85z"/>
	<path class="st2" d="M234.07,88.85c0,0-18.77-19.86-48.92,0H234.07"/>
	<circle class="st4" cx="160.32" cy="188.73" r="4.66"/>
	<circle class="st4" cx="175.52" cy="188.73" r="4.66"/>
</g>
</svg>
